<svg width="166.92499999999998px" height="129.2px" xmlns="http://www.w3.org/2000/svg" viewBox="166.53750000000002 10.400000000000006 166.92499999999998 129.2" style="background: rgb(0, 0, 0);" preserveAspectRatio="xMidYMid"><defs><linearGradient id="editing-outline-gradient" x1="-0.5" x2="1.5" y1="0.5" y2="0.5"><stop offset="0" stop-color="rgba(25.882352941176467%,65.09803921568634%,89.01960784313725%,0.744)"></stop><stop offset="1" stop-color="rgba(100%,33.72549019607844%,96.47058823529416%,0.855)"></stop></linearGradient><filter id="editing-outline" x="-100%" y="-100%" width="300%" height="300%"><feMorphology in="SourceGraphic" operator="dilate" radius="4" result="outline"></feMorphology><feComposite operator="out" in="outline" in2="SourceAlpha"></feComposite></filter></defs><g filter="url(#editing-outline)"><g transform="translate(196.56000304222107, 105.4000015258789)"><path d="M8.32-46.08L31.94-5.06L55.49-46.08L61.57-46.08L34.94 0L28.93 0L2.24-46.08L8.32-46.08ZM104.64-36.99L104.64 6.91L104.64 6.91Q104.64 10.18 102.40 12.45L102.40 12.45L102.40 12.45Q100.16 14.72 96.90 14.72L96.90 14.72L73.73 14.72L73.73 9.41L96.90 9.41L96.90 9.41Q97.92 9.41 98.66 8.67L98.66 8.67L98.66 8.67Q99.39 7.94 99.39 6.91L99.39 6.91L99.39 0L74.62 0L74.62 0Q71.42 0 69.15-2.27L69.15-2.27L69.15-2.27Q66.88-4.54 66.88-7.74L66.88-7.74L66.88-36.99L72.13-36.99L72.13-7.74L72.13-7.74Q72.13-6.72 72.86-5.98L72.86-5.98L72.86-5.98Q73.60-5.25 74.62-5.25L74.62-5.25L96.90-5.25L96.90-5.25Q97.92-5.25 98.66-5.98L98.66-5.98L98.66-5.98Q99.39-6.72 99.39-7.74L99.39-7.74L99.39-36.99L104.64-36.99Z" fill="url(#editing-outline-gradient)"></path></g></g><style>text {
  font-size: 64px;
  font-family: Arial Black;
  dominant-baseline: central;
  text-anchor: middle;
}</style></svg>